# xmcd CD database file
#
# Track frame offsets:
#	150
#	17622
#	29567
#
# Disc length: 626 seconds
#
# Revision: 0
# Processed by: cddbd v1.5.1PL0 Copyright (c) Steve Scherf et al.
# Submitted via: CDex 1.51
#
DISCID=1b027003
DTITLE=NO NO BOYS - SILENT NIGHT
DYEAR=1995
DGENRE=Rock
TTITLE0=SILENT NIGHT
TTITLE1=Snowfall
TTITLE2=SILENT NIGHT (Backing Track)
EXTD=YEAR: 1995
EXTT0=
EXTT1=
EXTT2=
PLAYORDER=
